<?xml version="1.0" encoding="UTF-8"?>
<svg version="1.1" xmlns="http://www.w3.org/2000/svg"
  viewBox="0 0 512 512"
  fill="currentColor"
>
<path d="M0 0 C14.48555971 4.52291738 27.38139723 11.26331065 39.078125 20.96875 C40.35236328 21.99742188 40.35236328 21.99742188 41.65234375 23.046875 C48.87812034 29.1723371 54.43193615 36.42260787 60.078125 43.96875 C61.54052315 43.76714367 62.99824065 43.53137996 64.453125 43.28125 C65.67128906 43.08982422 65.67128906 43.08982422 66.9140625 42.89453125 C69.30189516 42.15235849 69.30189516 42.15235849 70.20703125 39.6484375 C70.49449219 38.76414063 70.78195313 37.87984375 71.078125 36.96875 C82.12340847 17.4493802 100.85942551 4.12944985 122.203125 -1.96875 C144.44555985 -7.4746642 167.45878737 -3.59245753 187.078125 7.96875 C190.6449049 10.4168997 193.86531734 13.07905203 197.078125 15.96875 C197.68527344 16.43539062 198.29242188 16.90203125 198.91796875 17.3828125 C205.74576445 22.67783773 211.43898414 30.22122167 215.078125 38.03125 C217.91602604 42.19941716 221.30055892 42.89686017 226.078125 43.96875 C226.80515625 43.04255859 226.80515625 43.04255859 227.546875 42.09765625 C229.70433677 39.37178629 231.88983798 36.66991679 234.078125 33.96875 C234.655625 33.22753906 235.233125 32.48632812 235.828125 31.72265625 C242.08966328 24.10538312 250.05765133 18.58734778 258.078125 12.96875 C258.944375 12.35773438 259.810625 11.74671875 260.703125 11.1171875 C272.3802262 3.53518082 286.44437414 -0.78590236 300.078125 -3.03125 C301.15900391 -3.22654297 301.15900391 -3.22654297 302.26171875 -3.42578125 C306.39559233 -4.07035613 310.58925732 -4.20360343 314.765625 -4.34375 C315.84199219 -4.38113281 316.91835938 -4.41851562 318.02734375 -4.45703125 C321.88746913 -3.91829416 323.33482579 -2.76999223 326.078125 -0.03125 C342.5751697 22.28267174 348.72679042 51.6022572 345.11181641 78.88549805 C342.40526297 96.65433608 336.03402675 112.28900742 325.99609375 127.078125 C323.73088924 130.38013532 323.73088924 130.38013532 322.078125 133.96875 C322.7015781 136.29965156 322.7015781 136.29965156 324.04296875 138.65234375 C324.51017334 139.56894775 324.97737793 140.48555176 325.45874023 141.42993164 C325.97251221 142.4121167 326.48628418 143.39430176 327.015625 144.40625 C335.87371809 162.17415614 344.078125 182.75669973 344.078125 202.96875 C344.62412354 203.12512939 345.17012207 203.28150879 345.73266602 203.44262695 C351.71135896 205.27765868 356.73665679 207.83173514 362.015625 211.15625 C362.80195313 211.64528809 363.58828125 212.13432617 364.3984375 212.63818359 C370.30690538 216.36515724 375.82331219 220.35700869 381.078125 224.96875 C381.93921875 225.69835937 382.8003125 226.42796875 383.6875 227.1796875 C398.18141911 239.74394282 398.18141911 239.74394282 399.4140625 248.30078125 C399.50438736 254.0364101 398.97346274 258.50336284 395.078125 262.96875 C383.27587465 274.52148131 364.25804045 279.05571015 348.078125 279.96875 C346.13725494 279.92033054 344.19694726 279.84527541 342.2578125 279.75 C340.71287109 279.68425781 340.71287109 279.68425781 339.13671875 279.6171875 C337.0048507 279.51778752 334.87421821 279.38727348 332.74609375 279.2265625 C329.6279268 279.12484062 327.09203137 279.14978445 324.078125 279.96875 C321.32419406 282.60940605 319.78095902 285.58674239 318.078125 288.96875 C313.25315012 295.50906766 307.92122397 301.33558273 302.078125 306.96875 C301.28792969 307.76410156 300.49773437 308.55945313 299.68359375 309.37890625 C297.03378422 312.01282487 294.32964089 314.56637445 291.578125 317.09375 C290.6603125 317.94195312 289.7425 318.79015625 288.796875 319.6640625 C286.32342202 321.76081143 283.90734297 323.40037917 281.078125 324.96875 C282.71007812 325.42314453 282.71007812 325.42314453 284.375 325.88671875 C315.82494643 334.78676638 315.82494643 334.78676638 323.078125 345.96875 C324.91237118 351.47148853 325.04321327 356.96136641 322.515625 362.21875 C321.71125 363.12625 320.906875 364.03375 320.078125 364.96875 C319.66175781 365.44699219 319.24539063 365.92523438 318.81640625 366.41796875 C299.00012428 386.23425072 257.81345192 386.27554154 232.015625 386.34375 C206.64380916 386.29251834 173.43537246 385.33164014 151.765625 370.09375 C148.10078336 367.66371462 145.00937441 367.18777591 140.63671875 367.4140625 C136.79123822 368.2477392 133.98350535 370.18720548 130.71875 372.3203125 C96.3029394 393.80473865 37.18317407 388.91059558 -0.609375 380.71875 C-13.70829194 377.63651318 -29.58329407 373.17633488 -37.125 361.03125 C-38.83942469 356.5939155 -38.70303491 351.49515959 -37.3046875 346.97265625 C-32.47823625 337.38382169 -21.15610621 333.07107535 -11.57421875 329.83984375 C-8.36703258 328.84197067 -5.15188023 327.8897896 -1.921875 326.96875 C-0.74431641 326.62650391 -0.74431641 326.62650391 0.45703125 326.27734375 C1.99507185 325.83302091 3.53611069 325.39907957 5.078125 324.96875 C4.62824219 324.64003906 4.17835937 324.31132812 3.71484375 323.97265625 C-12.81244869 311.75107126 -12.81244869 311.75107126 -19.1796875 304.05859375 C-21.18088221 301.65805749 -23.2977094 299.38598931 -25.421875 297.09375 C-30.13198717 291.88359167 -34.76407806 286.28434387 -37.921875 279.96875 C-38.54940674 279.98446045 -39.17693848 280.0001709 -39.82348633 280.01635742 C-61.0589579 280.47476044 -86.11911174 280.49037257 -103.921875 266.96875 C-104.48390625 266.56785156 -105.0459375 266.16695313 -105.625 265.75390625 C-110.00895974 262.42337373 -112.37172277 259.17519279 -113.30859375 253.71484375 C-113.89793298 245.34622669 -110.26462703 239.88205207 -104.9765625 233.69140625 C-96.04757974 224.31762177 -85.54751132 217.15485888 -74.546875 210.46875 C-73.70278076 209.95207764 -72.85868652 209.43540527 -71.98901367 208.90307617 C-67.35501893 206.14855885 -63.1866609 204.160777 -57.921875 202.96875 C-57.77492187 201.68484375 -57.62796875 200.4009375 -57.4765625 199.078125 C-54.8657313 177.86562749 -49.21615615 156.38318107 -37.5234375 138.20703125 C-35.61701345 135.17321719 -35.61701345 135.17321719 -36.41015625 132.42578125 C-37.87711977 130.0414917 -39.3637977 127.67762275 -40.94262695 125.36547852 C-56.86235974 102.04385281 -63.09918295 73.22055304 -58.48779297 45.34472656 C-55.34052144 28.71477401 -49.69307462 9.24933598 -37.03515625 -2.83203125 C-27.82644086 -8.05767936 -9.80738705 -2.7047952 0 0 Z " fill="#EEA2CB" transform="translate(112.921875,65.03125)"/>
<path d="M0 0 C14.48555971 4.52291738 27.38139723 11.26331065 39.078125 20.96875 C40.35236328 21.99742188 40.35236328 21.99742188 41.65234375 23.046875 C48.87812034 29.1723371 54.43193615 36.42260787 60.078125 43.96875 C61.54052315 43.76714367 62.99824065 43.53137996 64.453125 43.28125 C65.67128906 43.08982422 65.67128906 43.08982422 66.9140625 42.89453125 C69.30189516 42.15235849 69.30189516 42.15235849 70.20703125 39.6484375 C70.49449219 38.76414063 70.78195313 37.87984375 71.078125 36.96875 C82.12340847 17.4493802 100.85942551 4.12944985 122.203125 -1.96875 C144.44555985 -7.4746642 167.45878737 -3.59245753 187.078125 7.96875 C190.6449049 10.4168997 193.86531734 13.07905203 197.078125 15.96875 C197.68527344 16.43539062 198.29242188 16.90203125 198.91796875 17.3828125 C205.74576445 22.67783773 211.43898414 30.22122167 215.078125 38.03125 C217.91602604 42.19941716 221.30055892 42.89686017 226.078125 43.96875 C226.80515625 43.04255859 226.80515625 43.04255859 227.546875 42.09765625 C229.70433677 39.37178629 231.88983798 36.66991679 234.078125 33.96875 C234.655625 33.22753906 235.233125 32.48632812 235.828125 31.72265625 C242.08966328 24.10538312 250.05765133 18.58734778 258.078125 12.96875 C258.944375 12.35773438 259.810625 11.74671875 260.703125 11.1171875 C272.3802262 3.53518082 286.44437414 -0.78590236 300.078125 -3.03125 C301.15900391 -3.22654297 301.15900391 -3.22654297 302.26171875 -3.42578125 C306.39559233 -4.07035613 310.58925732 -4.20360343 314.765625 -4.34375 C315.84199219 -4.38113281 316.91835938 -4.41851562 318.02734375 -4.45703125 C321.88746913 -3.91829416 323.33482579 -2.76999223 326.078125 -0.03125 C342.5751697 22.28267174 348.72679042 51.6022572 345.11181641 78.88549805 C342.40526297 96.65433608 336.03402675 112.28900742 325.99609375 127.078125 C323.73088924 130.38013532 323.73088924 130.38013532 322.078125 133.96875 C322.7015781 136.29965156 322.7015781 136.29965156 324.04296875 138.65234375 C324.51017334 139.56894775 324.97737793 140.48555176 325.45874023 141.42993164 C325.97251221 142.4121167 326.48628418 143.39430176 327.015625 144.40625 C335.87371809 162.17415614 344.078125 182.75669973 344.078125 202.96875 C344.62412354 203.12512939 345.17012207 203.28150879 345.73266602 203.44262695 C351.71135896 205.27765868 356.73665679 207.83173514 362.015625 211.15625 C362.80195313 211.64528809 363.58828125 212.13432617 364.3984375 212.63818359 C370.30690538 216.36515724 375.82331219 220.35700869 381.078125 224.96875 C381.93921875 225.69835937 382.8003125 226.42796875 383.6875 227.1796875 C398.18141911 239.74394282 398.18141911 239.74394282 399.4140625 248.30078125 C399.50438736 254.0364101 398.97346274 258.50336284 395.078125 262.96875 C383.27587465 274.52148131 364.25804045 279.05571015 348.078125 279.96875 C346.13725494 279.92033054 344.19694726 279.84527541 342.2578125 279.75 C340.71287109 279.68425781 340.71287109 279.68425781 339.13671875 279.6171875 C337.0048507 279.51778752 334.87421821 279.38727348 332.74609375 279.2265625 C329.6279268 279.12484062 327.09203137 279.14978445 324.078125 279.96875 C321.32419406 282.60940605 319.78095902 285.58674239 318.078125 288.96875 C313.25315012 295.50906766 307.92122397 301.33558273 302.078125 306.96875 C301.28792969 307.76410156 300.49773437 308.55945313 299.68359375 309.37890625 C297.03378422 312.01282487 294.32964089 314.56637445 291.578125 317.09375 C290.6603125 317.94195312 289.7425 318.79015625 288.796875 319.6640625 C286.32342202 321.76081143 283.90734297 323.40037917 281.078125 324.96875 C282.71007812 325.42314453 282.71007812 325.42314453 284.375 325.88671875 C315.82494643 334.78676638 315.82494643 334.78676638 323.078125 345.96875 C324.91237118 351.47148853 325.04321327 356.96136641 322.515625 362.21875 C321.71125 363.12625 320.906875 364.03375 320.078125 364.96875 C319.66175781 365.44699219 319.24539063 365.92523438 318.81640625 366.41796875 C299.00012428 386.23425072 257.81345192 386.27554154 232.015625 386.34375 C206.64380916 386.29251834 173.43537246 385.33164014 151.765625 370.09375 C148.10078336 367.66371462 145.00937441 367.18777591 140.63671875 367.4140625 C136.79123822 368.2477392 133.98350535 370.18720548 130.71875 372.3203125 C96.3029394 393.80473865 37.18317407 388.91059558 -0.609375 380.71875 C-13.70829194 377.63651318 -29.58329407 373.17633488 -37.125 361.03125 C-38.83942469 356.5939155 -38.70303491 351.49515959 -37.3046875 346.97265625 C-32.47823625 337.38382169 -21.15610621 333.07107535 -11.57421875 329.83984375 C-8.36703258 328.84197067 -5.15188023 327.8897896 -1.921875 326.96875 C-0.74431641 326.62650391 -0.74431641 326.62650391 0.45703125 326.27734375 C1.99507185 325.83302091 3.53611069 325.39907957 5.078125 324.96875 C4.62824219 324.64003906 4.17835937 324.31132812 3.71484375 323.97265625 C-12.81244869 311.75107126 -12.81244869 311.75107126 -19.1796875 304.05859375 C-21.18088221 301.65805749 -23.2977094 299.38598931 -25.421875 297.09375 C-30.13198717 291.88359167 -34.76407806 286.28434387 -37.921875 279.96875 C-38.54940674 279.98446045 -39.17693848 280.0001709 -39.82348633 280.01635742 C-61.0589579 280.47476044 -86.11911174 280.49037257 -103.921875 266.96875 C-104.48390625 266.56785156 -105.0459375 266.16695313 -105.625 265.75390625 C-110.00895974 262.42337373 -112.37172277 259.17519279 -113.30859375 253.71484375 C-113.89793298 245.34622669 -110.26462703 239.88205207 -104.9765625 233.69140625 C-96.04757974 224.31762177 -85.54751132 217.15485888 -74.546875 210.46875 C-73.70278076 209.95207764 -72.85868652 209.43540527 -71.98901367 208.90307617 C-67.35501893 206.14855885 -63.1866609 204.160777 -57.921875 202.96875 C-57.77492187 201.68484375 -57.62796875 200.4009375 -57.4765625 199.078125 C-54.8657313 177.86562749 -49.21615615 156.38318107 -37.5234375 138.20703125 C-35.61701345 135.17321719 -35.61701345 135.17321719 -36.41015625 132.42578125 C-37.87711977 130.0414917 -39.3637977 127.67762275 -40.94262695 125.36547852 C-56.86235974 102.04385281 -63.09918295 73.22055304 -58.48779297 45.34472656 C-55.34052144 28.71477401 -49.69307462 9.24933598 -37.03515625 -2.83203125 C-27.82644086 -8.05767936 -9.80738705 -2.7047952 0 0 Z M95.078125 26.96875 C94.45550781 27.49855469 93.83289063 28.02835938 93.19140625 28.57421875 C81.99694003 38.76244082 74.21862859 55.35019816 72.85693359 70.41601562 C71.94312468 90.30983006 75.76604108 108.09636746 88.95703125 123.65625 C98.89161132 134.48732072 111.159855 141.88913835 126.078125 142.96875 C127.026875 143.04609375 127.975625 143.1234375 128.953125 143.203125 C144.37132971 143.88333991 158.08287712 137.56489996 169.390625 127.28125 C178.29110791 117.83248272 181.69110121 105.48425507 181.38671875 92.75390625 C180.29358082 82.88799053 175.05676401 72.36352326 167.61328125 65.79296875 C158.16380833 58.92966737 148.50805505 57.57006932 137.078125 58.96875 C133.29259434 60.11530622 130.30653636 61.70760586 127.078125 63.96875 C125.985 64.690625 124.891875 65.4125 123.765625 66.15625 C118.72964364 71.42646305 115.81772464 77.11418629 115.515625 84.46875 C115.82363075 90.85533971 117.72350824 97.00881903 121.734375 102.05078125 C123.078125 103.96875 123.078125 103.96875 122.765625 107.21875 C122.4253125 108.58 122.4253125 108.58 122.078125 109.96875 C118.613125 110.46375 118.613125 110.46375 115.078125 110.96875 C107.62565011 102.29903755 104.33978542 93.5968502 104.76171875 82.109375 C105.92907163 70.52231674 111.18915342 62.86396583 120.0078125 55.50390625 C130.10062686 48.01998919 141.85975116 46.75751096 154.078125 47.96875 C166.78207231 50.54763665 176.49168744 57.57304891 184.078125 67.96875 C191.35033795 80.9126675 194.81416206 95.33344353 191.203125 110.01953125 C186.74031356 125.39876755 177.68413081 137.07778133 164.08984375 145.36328125 C148.45326037 153.6987362 129.75214413 155.72016862 112.390625 151.90625 C94.94117658 146.42286973 80.52699012 134.35147165 71.85791016 118.35595703 C70.11702755 114.95426086 68.5599696 111.49019363 67.078125 107.96875 C66.80419922 107.32228516 66.53027344 106.67582031 66.24804688 106.00976562 C60.24283877 91.12467585 60.33985727 73.63523258 63.078125 57.96875 C53.24272373 62.66178411 43.93463401 67.55787217 35.078125 73.96875 C34.05460937 74.70609375 33.03109375 75.4434375 31.9765625 76.203125 C23.64726172 82.343723 16.11890636 89.26709401 8.67138672 96.43847656 C7.37156488 97.68691102 6.0570005 98.91998117 4.73828125 100.1484375 C-16.07134224 119.97928524 -32.3354326 148.10763652 -40.609375 175.46875 C-40.81208008 176.13261719 -41.01478516 176.79648438 -41.22363281 177.48046875 C-44.49525032 188.77546876 -45.32944272 199.93238882 -45.296875 211.65625 C-45.29666351 212.36085358 -45.29645203 213.06545715 -45.29623413 213.79141235 C-45.2637196 224.6538848 -44.46876845 234.64308978 -40.921875 244.96875 C-40.57125 246.05800781 -40.220625 247.14726562 -39.859375 248.26953125 C-33.07850378 267.55263379 -21.81842401 283.20366668 -7.921875 297.96875 C-7.385625 298.55785156 -6.849375 299.14695312 -6.296875 299.75390625 C3.81940748 310.45187497 16.43959309 318.59392038 29.078125 325.96875 C29.68736816 326.32565918 30.29661133 326.68256836 30.92431641 327.05029297 C54.92908267 340.92652087 82.63808923 349.45640114 110.078125 352.96875 C111.18498657 353.11340698 111.18498657 353.11340698 112.31420898 353.26098633 C121.27680546 354.25231853 130.28530594 354.154827 139.29077148 354.15405273 C142.11001996 354.1562264 144.92886793 354.17439905 147.74804688 354.19335938 C162.51581438 354.23988949 177.12605101 353.42159347 191.578125 350.15625 C192.35599365 349.98520752 193.1338623 349.81416504 193.93530273 349.63793945 C214.12742769 345.09761397 233.00445531 338.53052859 251.33837891 328.88134766 C252.89338645 328.06565608 254.45968162 327.27156712 256.02734375 326.48046875 C287.3230832 310.26150889 315.27211103 281.41539476 326.1953125 247.5 C327.21967835 244.00070643 328.18831803 240.50466418 329.078125 236.96875 C329.34846558 236.03542847 329.34846558 236.03542847 329.62426758 235.08325195 C331.59446276 227.63023986 331.43080797 220.05785799 331.390625 212.40625 C331.38880219 211.69187775 331.38697937 210.97750549 331.38510132 210.2414856 C331.34044666 199.87564108 330.97066779 190.01100541 328.078125 179.96875 C327.7378125 178.76605469 327.3975 177.56335938 327.046875 176.32421875 C317.56878059 145.74455603 299.86037236 120.06433875 278.078125 96.96875 C277.3871875 96.23527344 276.69625 95.50179687 275.984375 94.74609375 C261.53338128 79.85090965 242.34847197 65.80753521 223.078125 57.96875 C223.1503125 58.53980469 223.2225 59.11085937 223.296875 59.69921875 C224.10166905 66.72998901 224.68401673 73.90343624 224.078125 80.96875 C222.078125 82.96875 222.078125 82.96875 219.078125 83.21875 C216.078125 82.96875 216.078125 82.96875 214.078125 80.96875 C213.70635192 78.16569903 213.42797096 75.40860456 213.203125 72.59375 C211.25136664 52.48466411 201.94277197 36.22631866 186.71484375 23.00390625 C159.4010078 1.92167139 120.42938081 4.17545874 95.078125 26.96875 Z " fill="#35373B" transform="translate(112.921875,65.03125)"/>
<path d="M0 0 C0.33 0.99 0.66 1.98 1 3 C2.32100416 3.69077509 3.65597313 4.35516358 5 5 C6.5 6.48828125 6.5 6.48828125 8 8.3125 C11.25366377 12.16348866 14.62819166 15.87362277 18.0625 19.5625 C21.20418616 22.94034169 24.31553786 26.31344732 27.25 29.875 C29.85019405 32.95895108 32.7603977 35.5373591 35.8359375 38.140625 C37.28766076 39.38795401 38.70992838 40.6703413 40.1015625 41.984375 C52.54208682 53.69813329 66.8287504 63.21263936 82 71 C82.71172363 71.3707666 83.42344727 71.7415332 84.15673828 72.12353516 C113.65431852 87.33575682 144.31472556 92.83618715 177 96 C177 95.34 177 94.68 177 94 C175.576875 93.690625 175.576875 93.690625 174.125 93.375 C163.51373649 90.26665008 155.46946038 83.27171683 150.171875 73.6953125 C146.97230687 66.8625899 144.01415173 59.60811999 146 52 C148.27450828 48.98463522 149.44429272 48.08519212 153.22546387 47.50552368 C154.50135376 47.50837372 155.77724365 47.51122375 157.09179688 47.51416016 C157.79796646 47.51036346 158.50413605 47.50656677 159.23170471 47.50265503 C161.56117467 47.49525803 163.8893913 47.51661823 166.21875 47.5390625 C167.84012709 47.54144759 169.46150698 47.54235211 171.08288574 47.5418396 C174.47909882 47.54496614 177.87488932 47.56151952 181.27099609 47.58837891 C185.62233605 47.62235865 189.97321179 47.63000737 194.32466888 47.62848854 C197.6721438 47.62903264 201.01951742 47.64000627 204.36695862 47.65449142 C205.97131077 47.66085162 207.57567438 47.6647965 209.18003845 47.66627884 C211.42295844 47.6706202 213.66538861 47.68813856 215.90820312 47.70947266 C217.18409302 47.71709625 218.45998291 47.72471985 219.77453613 47.73257446 C222.80411591 47.98375911 224.51460319 48.30111465 227 50 C229.55096326 55.10192652 228.52170442 61.26355207 226.94140625 66.5234375 C222.19891314 78.37324413 215.64466478 86.48068862 204 92 C203.34 92 202.68 92 202 92 C202 92.66 202 93.32 202 94 C213.13146355 94.39966691 223.13066975 93.32836504 234 91 C235.15371094 90.80664062 236.30742187 90.61328125 237.49609375 90.4140625 C263.79893392 85.89830176 290.36909714 74.61356752 312 59 C312.95543701 58.3198584 312.95543701 58.3198584 313.93017578 57.62597656 C322.20970593 51.69986772 329.9850554 45.45195376 337.38671875 38.4609375 C339.64358265 36.33563966 341.94568404 34.31275364 344.3125 32.3125 C347.48994084 29.55092054 350.22239491 26.5877164 352.94140625 23.37890625 C356.11078773 19.71637623 359.42881295 16.19253314 362.73730469 12.65576172 C365.02424263 10.19756518 367.18080998 7.76617767 369.23828125 5.10546875 C370.11033203 4.06326172 370.11033203 4.06326172 371 3 C371.66 3 372.32 3 373 3 C373.33 2.01 373.66 1.02 374 0 C376.83976263 17.89607835 376.91554525 38.77875807 371 56 C370.649375 57.08925781 370.29875 58.17851562 369.9375 59.30078125 C363.15662878 78.58388379 351.89654901 94.23491668 338 109 C337.46375 109.58910156 336.9275 110.17820312 336.375 110.78515625 C322.15744507 125.82022059 303.52035012 136.25399629 285 145 C283.51886719 145.70769531 283.51886719 145.70769531 282.0078125 146.4296875 C279.35655902 147.66693913 276.68828228 148.84561996 274 150 C273.1028125 150.39703125 272.205625 150.7940625 271.28125 151.203125 C254.09351107 158.34960592 235.39571623 161.74320819 217 164 C215.98086769 164.13160522 215.98086769 164.13160522 214.94114685 164.26586914 C209.38179155 164.94407939 203.90992799 165.16056031 198.3125 165.16796875 C197.41112305 165.17129715 196.50974609 165.17462555 195.58105469 165.17805481 C193.68180852 165.18308789 191.78255361 165.18546426 189.88330078 165.18530273 C187.03532594 165.18747308 184.18774949 165.20562334 181.33984375 165.22460938 C166.65191862 165.27055309 152.4073612 164.1804689 138 161.1875 C137.16952148 161.01718262 136.33904297 160.84686523 135.48339844 160.67138672 C90.03444852 151.04618974 44.62329864 127.09940434 18.296875 87.703125 C10.78724084 75.80525245 4.73024912 63.7011177 1.47192383 49.96728516 C1.15887463 48.66229268 0.8150583 47.36427802 0.44018555 46.07568359 C-1.42249935 39.14258471 -1.26829786 32.15399871 -1.20581055 25.03369141 C-1.18747966 22.87260165 -1.18530201 20.71194098 -1.18554688 18.55078125 C-1.16342543 12.27360625 -1.00081679 6.21454812 0 0 Z " fill="#E980BC" transform="translate(69,254)"/>
<path d="M0 0 C6.4561722 5.06561203 12.29324012 13.48129895 13.77734375 21.58203125 C14.6993675 34.58000498 13.79930456 44.47059272 5.859375 55.21875 C-0.89151758 62.88158304 -9.28784937 67.15993564 -19.3671875 67.96484375 C-29.33671956 68.48074664 -36.77456921 67.3559994 -45.22265625 61.58203125 C-45.90714844 61.12570312 -46.59164063 60.669375 -47.296875 60.19921875 C-52.3912309 56.3314865 -55.25752768 51.15287886 -58.22265625 45.58203125 C-58.84140625 44.53015625 -59.46015625 43.47828125 -60.09765625 42.39453125 C-63.05349633 32.37751765 -62.01446565 21.82337794 -57.22265625 12.58203125 C-51.41995589 2.88225106 -43.13002593 -3.67867305 -32.35546875 -6.9921875 C-20.41515074 -9.37587736 -10.12158796 -6.45718177 0 0 Z " fill="#34373C" transform="translate(375.22265625,238.41796875)"/>
<path d="M0 0 C9.54118823 6.36556036 16.49045556 14.72514546 19.04296875 26.11328125 C19.10484375 27.22703125 19.16671875 28.34078125 19.23046875 29.48828125 C19.31296875 30.70515625 19.39546875 31.92203125 19.48046875 33.17578125 C19.20725812 44.96937348 14.7412185 54.2123882 6.28125 62.3671875 C4.33673258 63.940945 2.39325707 65.23337982 0.23046875 66.48828125 C-0.46046875 66.89949219 -1.15140625 67.31070313 -1.86328125 67.734375 C-10.51450927 72.01554777 -21.58057721 71.87572938 -30.87109375 69.79296875 C-33.34894041 68.88007787 -35.50305429 67.83888205 -37.76953125 66.48828125 C-38.47207031 66.07578125 -39.17460937 65.66328125 -39.8984375 65.23828125 C-47.09173496 60.43364993 -52.9727519 52.6680235 -55.32421875 44.2890625 C-57.44768069 30.93360452 -56.21548495 20.62427862 -48.28125 9.37890625 C-36.67473547 -5.26219563 -16.39437312 -8.94869168 0 0 Z " fill="#34373C" transform="translate(178.76953125,235.51171875)"/>
<path d="M0 0 C1.05058594 0.00902344 2.10117187 0.01804687 3.18359375 0.02734375 C3.96863281 0.03894531 4.75367188 0.05054687 5.5625 0.0625 C10.33265116 10.9940964 8.68187044 19.02836512 4.5625 30.0625 C-0.44218811 41.55571916 -7.27725731 51.65710453 -14.375 61.9375 C-15.45197081 63.51117228 -16.52814783 65.08538811 -17.60351562 66.66015625 C-20.20576207 70.46724733 -22.81854528 74.26688566 -25.4375 78.0625 C-28.69262668 77.34292817 -30.09044624 76.69782019 -32.3125 74.1875 C-44.33291759 61.62422484 -59.85935452 52.32613423 -74.4375 43.0625 C-66.17721921 25.06248515 -46.18361021 12.24314048 -28.4375 5.0625 C-19.2230417 1.90136875 -9.76556445 -0.10972544 0 0 Z " fill="#EDA2CB" transform="translate(424.4375,73.9375)"/>
<path d="M0 0 C23.13366532 -1.91892155 45.5027922 7.75284263 63.0078125 22.40234375 C69.27631312 27.84431883 75.74754834 33.78202284 80 41 C78.86616634 44.40150097 78.49394565 44.58065402 75.52734375 46.2421875 C74.43679687 46.87181396 74.43679687 46.87181396 73.32421875 47.51416016 C72.14279297 48.18777588 72.14279297 48.18777588 70.9375 48.875 C58.42727543 56.25673195 47.54388398 65.43519197 36.91796875 75.29296875 C35 77 35 77 32 79 C20.51793147 63.466768 9.44597304 47.41414334 1 30 C0.62359375 29.31035156 0.2471875 28.62070313 -0.140625 27.91015625 C-3.53698601 20.85498816 -3.42258469 9.21324891 -0.98046875 1.98046875 C-0.65691406 1.32691406 -0.33335938 0.67335938 0 0 Z " fill="#EDA2CB" transform="translate(82,74)"/>
<path d="M0 0 C0.70616959 -0.00379669 1.41233917 -0.00759338 2.13990784 -0.01150513 C4.46937779 -0.01890213 6.79759442 0.00245808 9.12695312 0.02490234 C10.74833022 0.02728743 12.3697101 0.02819195 13.99108887 0.02767944 C17.38730195 0.03080598 20.78309244 0.04735936 24.17919922 0.07421875 C28.53053917 0.10819849 32.88141492 0.11584722 37.23287201 0.11432838 C40.58034692 0.11487249 43.92772054 0.12584612 47.27516174 0.14033127 C48.87951389 0.14669147 50.48387751 0.15063635 52.08824158 0.15211868 C54.33116156 0.15646004 56.57359173 0.17397841 58.81640625 0.1953125 C60.09229614 0.2029361 61.36818604 0.21055969 62.68273926 0.21841431 C65.71231904 0.46959895 67.42280632 0.78695449 69.90820312 2.48583984 C72.45916638 7.58776636 71.42990755 13.74939191 69.84960938 19.00927734 C64.75550431 31.73763743 57.56982379 39.59145299 45.13085938 45.30175781 C39.98071285 47.454876 35.4565529 47.94605341 29.90820312 47.86083984 C28.77511719 47.87824219 28.77511719 47.87824219 27.61914062 47.89599609 C17.45060704 47.84358097 8.33236769 43.15985399 0.70507812 36.58740234 C-7.16594332 28.50608643 -11.79651582 18.10335031 -11.69335938 6.79052734 C-10.06755072 0.56177991 -5.79593706 -0.01294675 0 0 Z " fill="#38383D" transform="translate(226.091796875,301.51416015625)"/>
<path d="M0 0 C12.24096088 10.38033482 22.59867111 24.20145702 25.8125 40.25 C26.09346727 44.60967548 26.06564677 48.89025007 25.8125 53.25 C23.55133908 50.34952274 21.67770901 47.3536923 19.8125 44.1875 C9.60198628 28.17894926 -5.2957141 18.59820491 -23.1875 13.25 C-24.22261719 12.88648437 -25.25773437 12.52296875 -26.32421875 12.1484375 C-46.12038914 7.54467695 -66.77031195 11.49515592 -83.8984375 21.94921875 C-94.95444238 29.41251241 -103.50526428 39.37255986 -110.2421875 50.81640625 C-110.55414063 51.28949219 -110.86609375 51.76257813 -111.1875 52.25 C-111.5175 52.25 -111.8475 52.25 -112.1875 52.25 C-113.27731122 35.1762909 -106.14474498 21.00910304 -95.1875 8.25 C-94.68992188 7.65703125 -94.19234375 7.0640625 -93.6796875 6.453125 C-70.03395013 -19.45024559 -27.1737585 -20.703816 0 0 Z " fill="#FDC8E6" transform="translate(299.1875,87.75)"/>
<path d="M0 0 C14.82828115 0.23425405 33.34026177 4.39637872 45.1875 13.7578125 C46.72106882 15.58851028 47.1933738 16.87915902 47.4375 19.25 C39.16547675 30.77174667 19.63168393 33.20347305 6.5546875 35.63671875 C-2.01652987 37.01362699 -10.61642058 37.40742383 -19.28515625 37.41796875 C-20.27011581 37.42129715 -21.25507538 37.42462555 -22.2698822 37.42805481 C-24.34129373 37.43308119 -26.41271324 37.43546448 -28.48413086 37.43530273 C-31.59307798 37.43747767 -34.70166278 37.45564826 -37.81054688 37.47460938 C-53.72532764 37.52123378 -69.2596506 36.88437415 -84.6875 32.625 C-85.56019531 32.39554687 -86.43289063 32.16609375 -87.33203125 31.9296875 C-89.41188429 31.38115483 -91.48772123 30.81742384 -93.5625 30.25 C-90.54708289 28.23972193 -89.19997621 27.86058155 -85.72265625 27.35546875 C-84.75239502 27.20754883 -83.78213379 27.05962891 -82.7824707 26.90722656 C-81.21952271 26.67471191 -81.21952271 26.67471191 -79.625 26.4375 C-53.16788033 22.21955495 -24.48704578 1.71838918 0 0 Z " fill="#E77FBB" transform="translate(377.5625,400.75)"/>
<path d="M0 0 C7.43250666 4.17928409 14.94160589 7.53848859 22.9375 10.5 C23.91533447 10.86472412 24.89316895 11.22944824 25.90063477 11.60522461 C43.37811691 17.95838343 62.7659908 23.16828387 81.4375 23.5625 C81.4375 24.2225 81.4375 24.8825 81.4375 25.5625 C65.89955379 29.53373687 51.14238958 32.68701575 35.0234375 32.765625 C34.05858932 32.77259399 33.09374115 32.77956299 32.09965515 32.78674316 C29.00389193 32.80403976 25.90830952 32.8104622 22.8125 32.8125 C21.23080521 32.81401062 21.23080521 32.81401062 19.61715698 32.81555176 C4.36482223 32.80567697 -10.54928631 32.52744197 -25.5625 29.5625 C-26.31321777 29.42328125 -27.06393555 29.2840625 -27.83740234 29.140625 C-38.76527956 27.0503691 -52.08287533 23.36099569 -59.5625 14.5625 C-59.6875 12.625 -59.6875 12.625 -58.5625 10.5625 C-49.70364218 1.224785 -35.67885232 -0.95084419 -23.5625 -3.4375 C-22.59054688 -3.63859375 -21.61859375 -3.8396875 -20.6171875 -4.046875 C-12.23038903 -5.11935562 -7.28394641 -4.36224981 0 0 Z " fill="#E77FBB" transform="translate(146.5625,405.4375)"/>
<path d="M0 0 C11.58701988 3.44151785 21.59364695 11.65395087 31 19 C31.60585938 19.44988281 32.21171875 19.89976562 32.8359375 20.36328125 C37.21117118 23.7315167 41.38472418 28.12037993 44 33 C43.77054878 36.67121957 43.22948629 37.75190671 40.6875 40.5 C25.65570739 51.80049657 5.84826852 51.50764474 -12 51 C-10.57676851 46.64513875 -9.13772911 42.30688588 -7.5 38.02734375 C-2.8688181 25.58957232 -1.2375874 13.17074726 0 0 Z " fill="#D162A7" transform="translate(456,281)"/>
<path d="M0 0 C0.08133179 0.93344238 0.08133179 0.93344238 0.16430664 1.88574219 C1.47550668 16.07847348 3.99395434 28.67509673 9.22705078 41.93408203 C10.34148058 44.91270015 11.1800896 47.92839538 12 51 C-6.86109661 51.65577496 -27.99085284 52.19034167 -42.75 38.4375 C-44 36 -44 36 -44.125 33.625 C-39.2402742 22.22730647 -12.37612675 0 0 0 Z " fill="#D162A7" transform="translate(56,281)"/>
<path d="M0 0 C2.79151516 2.40292356 3.76220715 4.62472375 5 8.0625 C10.80538326 22.43773474 20.35936296 35.22265533 29.15234375 47.890625 C29.63815918 48.59638672 30.12397461 49.30214844 30.62451172 50.02929688 C31.49684544 51.27911544 32.38722267 52.51668436 33.30126953 53.73632812 C36.05803684 57.50961648 36.05803684 57.50961648 35.77026367 59.94116211 C34.9003017 62.2664836 33.82868618 63.7447703 32.234375 65.64453125 C31.67363281 66.32193359 31.11289063 66.99933594 30.53515625 67.69726562 C29.94605469 68.39529297 29.35695312 69.09332031 28.75 69.8125 C24.6222384 74.75190011 20.6765737 79.71319759 17 85 C12.84990133 81.24617812 10.41026424 77.58762773 8 72.5625 C7.6582373 71.86020264 7.31647461 71.15790527 6.96435547 70.43432617 C-0.02714114 55.77989852 -3.12398433 42.04006638 -3.25 25.8125 C-3.25942627 24.89791016 -3.26885254 23.98332031 -3.27856445 23.04101562 C-3.24876984 16.80325986 -2.39150173 11.06878049 -1 5 C-0.66237854 3.3341967 -0.32791126 1.66774192 0 0 Z " fill="#9C3255" transform="translate(69,102)"/>
<path d="M0 0 C0.33 0 0.66 0 1 0 C8.57897484 24.25271949 4.13603251 50.71247542 -7 73 C-9.02992505 76.84965367 -11.10201709 80.73518381 -14 84 C-14.99 84 -15.98 84 -17 84 C-18.34692383 82.64233398 -18.34692383 82.64233398 -19.70703125 80.74609375 C-20.21169922 80.05580078 -20.71636719 79.36550781 -21.23632812 78.65429688 C-21.75646484 77.92275391 -22.27660156 77.19121094 -22.8125 76.4375 C-23.83737358 75.01774484 -24.86470853 73.59976314 -25.89453125 72.18359375 C-26.6517749 71.13341064 -26.6517749 71.13341064 -27.42431641 70.06201172 C-29.44578911 67.41661995 -31.6827357 65.01082198 -34.00268555 62.62524414 C-35 61 -35 61 -34.73046875 58.92724609 C-33.8399433 56.57771137 -32.68679592 54.67067687 -31.3125 52.5625 C-30.68859375 51.60085937 -30.0646875 50.63921875 -29.421875 49.6484375 C-27.53248791 46.78806974 -25.61864892 43.94447768 -23.703125 41.1015625 C-11.11647753 22.81026217 -11.11647753 22.81026217 -1.69140625 2.79296875 C-1 1 -1 1 0 0 Z " fill="#9C3255" transform="translate(442,102)"/>
<path d="M0 0 C9.83540127 4.69303411 19.14349099 9.58912217 28 16 C29.02351563 16.73734375 30.04703125 17.4746875 31.1015625 18.234375 C40.01867754 24.80868477 48.06063324 32.28949398 56 40 C56.59723877 40.5760498 57.19447754 41.15209961 57.80981445 41.74560547 C61.67497199 45.53035932 65.14555117 49.46032428 68.4375 53.75 C68.90124023 54.34981689 69.36498047 54.94963379 69.84277344 55.56762695 C70.78142111 56.78648001 71.71718244 58.00756184 72.64990234 59.23095703 C73.5258306 60.37869232 74.40611898 61.5231181 75.29150391 62.66357422 C76.45519493 64.16318559 77.60308556 65.67501914 78.75 67.1875 C79.73226562 68.47720703 79.73226562 68.47720703 80.734375 69.79296875 C81.15203125 70.52128906 81.5696875 71.24960938 82 72 C81.505 73.485 81.505 73.485 81 75 C80.30390625 74.23429687 80.30390625 74.23429687 79.59375 73.453125 C57.79416869 50.51475959 28.55749689 37.66111088 -1 28 C-1 25 -1 25 1 23 C1.65522668 15.35939061 0.9595707 7.59088966 0 0 Z " fill="#FCC8E5" transform="translate(336,123)"/>
<path d="M0 0 C1.35078309 2.70156619 0.62876542 4.07762489 0 7 C-0.1400363 8.76452396 -0.2440078 10.53219044 -0.31640625 12.30078125 C-0.35830078 13.27724609 -0.40019531 14.25371094 -0.44335938 15.25976562 C-0.48267578 16.26716797 -0.52199219 17.27457031 -0.5625 18.3125 C-0.62727539 19.85260742 -0.62727539 19.85260742 -0.69335938 21.42382812 C-0.79906825 23.94909569 -0.90116468 26.47445562 -1 29 C-2.51400391 29.44085938 -2.51400391 29.44085938 -4.05859375 29.890625 C-23.62208937 35.85907091 -42.61033331 44.68776258 -59 57 C-59.61439941 57.45793945 -60.22879883 57.91587891 -60.86181641 58.38769531 C-67.67383206 63.50324534 -74.17324088 68.7570438 -80 75 C-80.66 74.67 -81.32 74.34 -82 74 C-69.3398202 54.23356124 -53.583603 36.39271315 -35 22 C-34.44183594 21.5654248 -33.88367188 21.13084961 -33.30859375 20.68310547 C-22.85470719 12.59857507 -11.88267485 5.80596518 0 0 Z " fill="#FCC7E5" transform="translate(175,123)"/>
<path d="M0 0 C9.06183714 5.08159038 18.30307258 8.91617732 28.0625 12.4375 C28.0625 12.7675 28.0625 13.0975 28.0625 13.4375 C26.75768677 13.467229 26.75768677 13.467229 25.42651367 13.49755859 C4.00503145 14.00978374 -16.86280793 15.29453612 -38.04150391 18.78417969 C-40.31635358 19.15094819 -42.59434515 19.48396837 -44.875 19.8125 C-45.58543457 19.93367188 -46.29586914 20.05484375 -47.02783203 20.1796875 C-50.94413634 20.71385546 -52.84069555 20.48771114 -56.38671875 18.6484375 C-58.9375 16.4375 -58.9375 16.4375 -59.8125 13.6875 C-59.85375 12.945 -59.895 12.2025 -59.9375 11.4375 C-50.00555708 1.73128305 -37.12683517 -0.85563443 -23.9375 -3.5625 C-22.96554688 -3.76359375 -21.99359375 -3.9646875 -20.9921875 -4.171875 C-12.46749148 -5.26198958 -7.43528496 -4.39540549 0 0 Z " fill="#D162A7" transform="translate(146.9375,405.5625)"/>
<path d="M0 0 C1.15628906 0.16113281 2.31257813 0.32226562 3.50390625 0.48828125 C15.41263563 2.29456975 32.85326094 5.27483025 41 15 C41.828125 17.01171875 41.828125 17.01171875 42 19 C39.46183391 22.03169839 37.77491089 23.74169637 34 25 C31.35250709 24.75061991 28.76729492 24.43086329 26.140625 24.0390625 C25.35919128 23.929039 24.57775757 23.8190155 23.77264404 23.70565796 C21.26411009 23.35200223 18.75699297 22.98940813 16.25 22.625 C-0.33658785 20.22323328 -16.6703943 18.96174062 -33.4375 18.4375 C-35.41073242 18.37272461 -35.41073242 18.37272461 -37.42382812 18.30664062 C-40.61581964 18.20217545 -43.80786557 18.09998528 -47 18 C-44.51159369 16.34106246 -42.60634377 15.37077119 -39.859375 14.3359375 C-39.04315674 14.02205078 -38.22693848 13.70816406 -37.38598633 13.38476562 C-36.51611084 13.05154297 -35.64623535 12.71832031 -34.75 12.375 C-28.15095523 9.81937967 -21.94998903 7.01863577 -15.8125 3.5 C-10.23915678 0.3973668 -6.34993054 -1.17368384 0 0 Z " fill="#D162A7" transform="translate(383,401)"/>
<path d="M0 0 C18.48 0 36.96 0 56 0 C54.637502 8.174988 51.40842231 13.6183028 44.85546875 18.74609375 C37.23099564 23.89863242 28.95244856 23.98420153 20 23 C11.12881775 20.45865336 5.67105608 14.48048117 1.0625 6.75 C0 4 0 4 0 0 Z " fill="#9B3255" transform="translate(228,314)"/>
<path d="M0 0 C1.67128358 1.83559516 2.1722028 3.06016569 2.390625 5.52734375 C-2.44975267 10.36772142 -12.22673137 9.65463466 -18.703125 9.7578125 C-21.17191342 9.75388548 -23.64070611 9.73945273 -26.109375 9.71484375 C-27.33785156 9.71419922 -28.56632812 9.71355469 -29.83203125 9.71289062 C-50.67093044 9.61344731 -50.67093044 9.61344731 -57.609375 6.52734375 C-57.39819904 2.83176445 -56.70992857 1.62789732 -54.046875 -1.03515625 C-37.60052773 -13.51710955 -16.20486804 -12.28982639 0 0 Z " fill="#FEC9E7" transform="translate(283.609375,271.47265625)"/>
<path d="M0 0 C4.96993136 0.56755389 9.06963987 2.14924175 13.5 4.375 C14.19343506 4.72296631 14.88687012 5.07093262 15.60131836 5.42944336 C28.64616013 12.24958659 42.44730638 23.18029635 50 36 C48.6551963 40.03441111 46.04690097 41.12667247 42.5625 43.1875 C41.96373047 43.55552734 41.36496094 43.92355469 40.74804688 44.30273438 C36.27929325 47 36.27929325 47 34 47 C32.41663542 44.48488626 30.94538367 41.96818023 29.5 39.375 C23.0099638 28.05919131 15.88830808 17.69980443 6.984375 8.1328125 C4.54156851 5.50727639 2.26626452 2.77800168 0 0 Z " fill="#FBC7E5" transform="translate(112,79)"/>
<path d="M0 0 C-0.57150276 3.51283698 -1.65983164 4.87533979 -4.3125 7.1875 C-15.55694893 18.04975835 -23.36564634 32.50475978 -31 46 C-34.95906817 44.56691865 -38.28718181 42.66858051 -41.8125 40.375 C-42.78832031 39.74335937 -43.76414062 39.11171875 -44.76953125 38.4609375 C-45.50558594 37.97882813 -46.24164063 37.49671875 -47 37 C-40.32262174 22.44929514 -17.07145422 0 0 0 Z " fill="#FBC7E4" transform="translate(397,80)"/>
<path d="M0 0 C-2.9263468 7.56813827 -6.41612241 10.54209727 -13.66015625 13.984375 C-19.67816581 16.59653274 -25.69454038 16.97124589 -32 15 C-37.80558866 12.5518602 -43.62462474 8.01557432 -46.2578125 2.2421875 C-46.50273437 1.50226563 -46.74765625 0.76234375 -47 0 C-32.27989844 -5.21725118 -14.78692892 -4.68717747 0 0 Z " fill="#14A291" transform="translate(375,279)"/>
<path d="M0 0 C-3.18767289 6.95403102 -7.75637747 11.87634792 -14.875 14.9375 C-22.29011332 17.2592576 -29.04825368 16.67168013 -35.9609375 13.203125 C-40.81028821 10.34182229 -44.48820596 7.1631322 -47 2 C-47 1.34 -47 0.68 -47 0 C-31.96231198 -5.23050018 -15.15082106 -4.27787889 0 0 Z " fill="#14A292" transform="translate(184,279)"/>
<path d="M0 0 C11.64911694 3.88303898 21.40590361 11.49157674 31 19 C31.66386719 19.50789063 32.32773437 20.01578125 33.01171875 20.5390625 C36.04745876 22.93531248 37.20672355 24.41344709 39 28 C25.14 27.67 11.28 27.34 -3 27 C-2.01 18.09 -1.02 9.18 0 0 Z " fill="#E57EB9" transform="translate(456,281)"/>
<path d="M0 0 C0.99 8.91 1.98 17.82 3 27 C-17.79 27.495 -17.79 27.495 -39 28 C-36.81575616 23.63151232 -34.28020979 21.55114451 -30.5 18.6875 C-29.86924561 18.2025708 -29.23849121 17.7176416 -28.58862305 17.21801758 C-6.06174058 0 -6.06174058 0 0 0 Z " fill="#E57EB9" transform="translate(56,281)"/>
<path d="M0 0 C2.4375 1.5625 2.4375 1.5625 4 4 C3.78571429 10.21428571 3.78571429 10.21428571 1 13 C-6.10659898 13.67681895 -6.10659898 13.67681895 -9.0625 11.4375 C-10.40411569 7.9492992 -9.92678615 5.57474656 -9 2 C-5.50875983 -0.32749345 -4.10777749 -0.50299316 0 0 Z " fill="#F8F8F8" transform="translate(339,252)"/>
<path d="M0 0 C1.9375 1.0625 1.9375 1.0625 3 3 C3.36528977 6.4093712 3.6140629 8.88023824 1.9375 11.9375 C-1.11976176 13.6140629 -3.5906288 13.36528977 -7 13 C-8.9375 11.9375 -8.9375 11.9375 -10 10 C-10.36528977 6.5906288 -10.6140629 4.11976176 -8.9375 1.0625 C-5.88023824 -0.6140629 -3.4093712 -0.36528977 0 0 Z " fill="#FBFBFB" transform="translate(148,252)"/>
<path d="M0 0 C1.32 0.33 2.64 0.66 4 1 C3.67 3.31 3.34 5.62 3 8 C1.0549 5.08235 0.54723683 3.37462715 0 0 Z " fill="#FBC3E2" transform="translate(328,149)"/>
</svg>
